<svg width="19" height="19" viewBox="0 0 19 19" fill="none" xmlns="http://www.w3.org/2000/svg">
<path d="M6.8667 4.70508C6.5592 4.70508 6.3042 4.45008 6.3042 4.14258V1.89258C6.3042 1.58508 6.5592 1.33008 6.8667 1.33008C7.1742 1.33008 7.4292 1.58508 7.4292 1.89258V4.14258C7.4292 4.45008 7.1742 4.70508 6.8667 4.70508Z" fill="#4E4B66"/>
<path d="M12.8667 4.70508C12.5592 4.70508 12.3042 4.45008 12.3042 4.14258V1.89258C12.3042 1.58508 12.5592 1.33008 12.8667 1.33008C13.1742 1.33008 13.4292 1.58508 13.4292 1.89258V4.14258C13.4292 4.45008 13.1742 4.70508 12.8667 4.70508Z" fill="#4E4B66"/>
<path d="M7.2417 11.2676C7.1442 11.2676 7.0467 11.2451 6.9567 11.2076C6.8592 11.1701 6.7842 11.1176 6.7092 11.0501C6.5742 10.9076 6.4917 10.7201 6.4917 10.5176C6.4917 10.4201 6.5142 10.3226 6.5517 10.2326C6.5892 10.1426 6.6417 10.0601 6.7092 9.98509C6.7842 9.91759 6.8592 9.86507 6.9567 9.82757C7.2267 9.71507 7.5642 9.77509 7.7742 9.98509C7.9092 10.1276 7.9917 10.3226 7.9917 10.5176C7.9917 10.5626 7.9842 10.6151 7.9767 10.6676C7.9692 10.7126 7.9542 10.7576 7.9317 10.8026C7.9167 10.8476 7.8942 10.8926 7.8642 10.9376C7.8417 10.9751 7.8042 11.0126 7.7742 11.0501C7.6317 11.1851 7.4367 11.2676 7.2417 11.2676Z" fill="#4E4B66"/>
<path d="M9.8667 11.2676C9.7692 11.2676 9.6717 11.2451 9.5817 11.2076C9.4842 11.1701 9.4092 11.1176 9.3342 11.0501C9.1992 10.9076 9.1167 10.7201 9.1167 10.5176C9.1167 10.4201 9.1392 10.3226 9.1767 10.2326C9.2142 10.1426 9.2667 10.0601 9.3342 9.98508C9.4092 9.91758 9.4842 9.86506 9.5817 9.82756C9.8517 9.70756 10.1892 9.77508 10.3992 9.98508C10.5342 10.1276 10.6167 10.3226 10.6167 10.5176C10.6167 10.5626 10.6092 10.6151 10.6017 10.6676C10.5942 10.7126 10.5792 10.7576 10.5567 10.8026C10.5417 10.8476 10.5192 10.8926 10.4892 10.9376C10.4667 10.9751 10.4292 11.0126 10.3992 11.0501C10.2567 11.1851 10.0617 11.2676 9.8667 11.2676Z" fill="#4E4B66"/>
<path d="M12.4917 11.2676C12.3942 11.2676 12.2967 11.2451 12.2067 11.2076C12.1092 11.1701 12.0342 11.1176 11.9592 11.0501C11.9292 11.0126 11.8992 10.9751 11.8692 10.9376C11.8392 10.8926 11.8167 10.8476 11.8017 10.8026C11.7792 10.7576 11.7642 10.7126 11.7567 10.6676C11.7492 10.6151 11.7417 10.5626 11.7417 10.5176C11.7417 10.3226 11.8242 10.1276 11.9592 9.98508C12.0342 9.91758 12.1092 9.86506 12.2067 9.82756C12.4842 9.70756 12.8142 9.77508 13.0242 9.98508C13.1592 10.1276 13.2417 10.3226 13.2417 10.5176C13.2417 10.5626 13.2342 10.6151 13.2267 10.6676C13.2192 10.7126 13.2042 10.7576 13.1817 10.8026C13.1667 10.8476 13.1442 10.8926 13.1142 10.9376C13.0917 10.9751 13.0542 11.0126 13.0242 11.0501C12.8817 11.1851 12.6867 11.2676 12.4917 11.2676Z" fill="#4E4B66"/>
<path d="M7.2417 13.8926C7.1442 13.8926 7.0467 13.8701 6.9567 13.8326C6.8667 13.7951 6.7842 13.7426 6.7092 13.6751C6.5742 13.5326 6.4917 13.3376 6.4917 13.1426C6.4917 13.0451 6.5142 12.9476 6.5517 12.8576C6.5892 12.7601 6.6417 12.6776 6.7092 12.6101C6.9867 12.3326 7.4967 12.3326 7.7742 12.6101C7.9092 12.7526 7.9917 12.9476 7.9917 13.1426C7.9917 13.3376 7.9092 13.5326 7.7742 13.6751C7.6317 13.8101 7.4367 13.8926 7.2417 13.8926Z" fill="#4E4B66"/>
<path d="M9.8667 13.8926C9.6717 13.8926 9.4767 13.8101 9.3342 13.6751C9.1992 13.5326 9.1167 13.3376 9.1167 13.1426C9.1167 13.0451 9.1392 12.9476 9.1767 12.8576C9.2142 12.7601 9.2667 12.6776 9.3342 12.6101C9.6117 12.3326 10.1217 12.3326 10.3992 12.6101C10.4667 12.6776 10.5192 12.7601 10.5567 12.8576C10.5942 12.9476 10.6167 13.0451 10.6167 13.1426C10.6167 13.3376 10.5342 13.5326 10.3992 13.6751C10.2567 13.8101 10.0617 13.8926 9.8667 13.8926Z" fill="#4E4B66"/>
<path d="M12.4917 13.8926C12.2967 13.8926 12.1017 13.8101 11.9592 13.6751C11.8917 13.6076 11.8392 13.5251 11.8017 13.4276C11.7642 13.3376 11.7417 13.2401 11.7417 13.1426C11.7417 13.0451 11.7642 12.9476 11.8017 12.8576C11.8392 12.7601 11.8917 12.6776 11.9592 12.6101C12.1317 12.4376 12.3942 12.3551 12.6342 12.4076C12.6867 12.4151 12.7317 12.4301 12.7767 12.4526C12.8217 12.4676 12.8667 12.4901 12.9117 12.5201C12.9492 12.5426 12.9867 12.5801 13.0242 12.6101C13.1592 12.7526 13.2417 12.9476 13.2417 13.1426C13.2417 13.3376 13.1592 13.5326 13.0242 13.6751C12.8817 13.8101 12.6867 13.8926 12.4917 13.8926Z" fill="#4E4B66"/>
<path d="M16.2417 7.77255H3.4917C3.1842 7.77255 2.9292 7.51755 2.9292 7.21005C2.9292 6.90255 3.1842 6.64755 3.4917 6.64755H16.2417C16.5492 6.64755 16.8042 6.90255 16.8042 7.21005C16.8042 7.51755 16.5492 7.77255 16.2417 7.77255Z" fill="#4E4B66"/>
<path d="M12.8667 17.4551H6.8667C4.1292 17.4551 2.5542 15.8801 2.5542 13.1426V6.76758C2.5542 4.03008 4.1292 2.45508 6.8667 2.45508H12.8667C15.6042 2.45508 17.1792 4.03008 17.1792 6.76758V13.1426C17.1792 15.8801 15.6042 17.4551 12.8667 17.4551ZM6.8667 3.58008C4.7217 3.58008 3.6792 4.62258 3.6792 6.76758V13.1426C3.6792 15.2876 4.7217 16.3301 6.8667 16.3301H12.8667C15.0117 16.3301 16.0542 15.2876 16.0542 13.1426V6.76758C16.0542 4.62258 15.0117 3.58008 12.8667 3.58008H6.8667Z" fill="#4E4B66"/>
</svg>
