<svg width="19" height="19" viewBox="0 0 19 19" fill="none" xmlns="http://www.w3.org/2000/svg">
<path d="M9.8667 17.4551C5.4192 17.4551 1.8042 13.8401 1.8042 9.39258C1.8042 4.94508 5.4192 1.33008 9.8667 1.33008C14.3142 1.33008 17.9292 4.94508 17.9292 9.39258C17.9292 13.8401 14.3142 17.4551 9.8667 17.4551ZM9.8667 2.45508C6.0417 2.45508 2.9292 5.56758 2.9292 9.39258C2.9292 13.2176 6.0417 16.3301 9.8667 16.3301C13.6917 16.3301 16.8042 13.2176 16.8042 9.39258C16.8042 5.56758 13.6917 2.45508 9.8667 2.45508Z" fill="#4E4B66"/>
<path d="M12.6492 12.3401C12.5517 12.3401 12.4542 12.3176 12.3642 12.2576L10.0392 10.8701C9.4617 10.5251 9.0342 9.76758 9.0342 9.10009V6.02509C9.0342 5.71759 9.2892 5.46259 9.5967 5.46259C9.9042 5.46259 10.1592 5.71759 10.1592 6.02509V9.10009C10.1592 9.37009 10.3842 9.76759 10.6167 9.90259L12.9417 11.2901C13.2117 11.4476 13.2942 11.7926 13.1367 12.0626C13.0242 12.2426 12.8367 12.3401 12.6492 12.3401Z" fill="#4E4B66"/>
</svg>
