<svg width="48" height="48" viewBox="0 0 48 48" fill="none" xmlns="http://www.w3.org/2000/svg">
<g clip-path="url(#clip0_4712_46465)">
<path d="M17 26.75C15.48 26.75 14.25 25.52 14.25 24C14.25 22.48 15.48 21.25 17 21.25C18.52 21.25 19.75 22.48 19.75 24C19.75 25.52 18.52 26.75 17 26.75ZM17 22.75C16.31 22.75 15.75 23.31 15.75 24C15.75 24.69 16.31 25.25 17 25.25C17.69 25.25 18.25 24.69 18.25 24C18.25 23.31 17.69 22.75 17 22.75Z" fill="#4E4B66"/>
<path d="M31 26.75C29.48 26.75 28.25 25.52 28.25 24C28.25 22.48 29.48 21.25 31 21.25C32.52 21.25 33.75 22.48 33.75 24C33.75 25.52 32.52 26.75 31 26.75ZM31 22.75C30.31 22.75 29.75 23.31 29.75 24C29.75 24.69 30.31 25.25 31 25.25C31.69 25.25 32.25 24.69 32.25 24C32.25 23.31 31.69 22.75 31 22.75Z" fill="#4E4B66"/>
<path d="M24 26.75C22.48 26.75 21.25 25.52 21.25 24C21.25 22.48 22.48 21.25 24 21.25C25.52 21.25 26.75 22.48 26.75 24C26.75 25.52 25.52 26.75 24 26.75ZM24 22.75C23.31 22.75 22.75 23.31 22.75 24C22.75 24.69 23.31 25.25 24 25.25C24.69 25.25 25.25 24.69 25.25 24C25.25 23.31 24.69 22.75 24 22.75Z" fill="#4E4B66"/>
</g>
<defs>
<clipPath id="clip0_4712_46465">
<rect x="4" y="4" width="40" height="40" rx="20" fill="white"/>
</clipPath>
</defs>
</svg>
